<svg id="Layer_1" data-name="Layer 1" xmlns="http://www.w3.org/2000/svg" viewBox="0 0 409.6 197.24"><defs><style>.cls-1{fill:#6244c5;}</style></defs><path class="cls-1" d="M566.4,807.18c-2.71,16-7.52,31.24-16.77,44.84-29.3,43.09-85.66,55.24-132.24,28.52a139.53,139.53,0,0,1-36-30,16.39,16.39,0,0,1,1.53-23.57c7.05-6.17,17.28-5.19,24.22,2.5,9.55,10.58,20.2,19.62,33.39,25.48,45.15,20.07,94.1-11.33,92.92-59.66-1.2-49.23-49.08-78.6-93.88-57.76-22.76,10.58-37.3,29.53-51.3,49.09-16.79,23.46-32,48-51.4,69.64-32.59,36.48-86.66,49-127.64,27.65-29.38-15.34-45.88-40.43-51.55-72.82-.23-1.3-.57-2.58-.86-3.87V784.82c2.72-16,7.55-31.24,16.79-44.84,30.76-45.3,91.63-56,138.79-24.49a151.22,151.22,0,0,1,29,25.5c6.45,7.28,6.2,17.2-.65,23.65-6.61,6.23-16.68,6.08-23.27-.93-13.52-14.4-28.29-26.58-48.26-31-36.67-8.16-70.3,13-77.81,49.19C183.82,818.36,206.18,854,241.31,860c25.68,4.34,47.83-4.28,66.51-22,19.73-18.69,33.33-42.07,48.71-64.08s31.3-43.07,54-58.2c40.93-27.32,93.43-23.57,126.93,9.54C553,740.59,562.06,759.41,565.54,781c.21,1.3.57,2.58.86,3.87Z" transform="translate(-156.8 -697.41)"/></svg>